<svg version="1.0" xmlns="http://www.w3.org/2000/svg"  width="1800.000000pt" height="1014.000000pt" viewBox="0 0 1800.000000 1014.000000"  preserveAspectRatio="xMidYMid meet"> <g transform="translate(0.000000,1014.000000) scale(0.100000,-0.100000)" fill="#FFFFFF" stroke="none"> <path d="M11247 7250 c-58 -51 -59 -65 -54 -652 l6 -528 -22 -15 c-18 -12 -70 -15 -312 -15 -298 0 -382 -8 -493 -45 -29 -10 -55 -21 -58 -26 -3 -5 -11 -9 -19 -9 -21 0 -126 -65 -183 -114 -58 -50 -150 -151 -163 -181 -5 -11 -18 -33 -29 -50 -35 -54 -78 -159 -91 -225 -30 -154 -33 -213 -14 -315 17 -95 45 -197 65 -233 5 -9 11 -24 15 -32 18 -46 101 -163 148 -211 201 -203 469 -289 745 -239 180 33 375 149 479 286 20 27 40 51 43 54 12 10 75 125 88 161 6 19 21 69 32 110 19 71 20 111 20 1147 0 976 -1 1076 -16 1102 -40 66 -130 81 -187 30z m-67 -1480 c12 -7 15 -50 15 -257 1 -136 -2 -306 -7 -376 -7 -113 -12 -135 -40 -195 -101 -214 -282 -332 -513 -332 -115 0 -183 19 -308 86 -42 23 -138 125 -175 187 -63 105 -82 176 -82 308 0 119 3 135 48 244 43 103 156 223 258 274 127 63 166 69 494 70 167 0 301 -3 310 -9z"/> <path d="M5081 7256 c-18 -6 -44 -24 -57 -40 l-24 -27 0 -553 c0 -426 -3 -556 -12 -569 -12 -15 -50 -17 -353 -20 -343 -3 -367 -6 -470 -45 -144 -54 -289 -158 -376 -269 -51 -65 -121 -194 -149 -273 -19 -55 -39 -198 -40 -285 -2 -213 -38 -315 -149 -426 -71 -70 -103 -90 -195 -120 -53 -17 -91 -19 -420 -19 -319 0 -370 2 -437 19 -187 46 -317 152 -397 324 -57 120 -126 107 597 107 595 0 631 1 671 19 65 29 80 60 80 166 0 57 -7 115 -19 160 -24 87 -50 157 -62 170 -5 5 -9 14 -9 21 0 20 -68 116 -128 179 -96 101 -201 174 -322 222 -129 51 -342 70 -446 38 -27 -8 -57 -15 -66 -15 -25 0 -174 -72 -233 -112 -101 -69 -218 -196 -260 -283 -11 -22 -24 -46 -30 -54 -28 -40 -71 -203 -78 -301 -6 -83 5 -231 24 -300 11 -43 22 -72 57 -150 53 -117 178 -257 299 -336 45 -30 88 -54 95 -54 8 0 18 -4 24 -10 16 -16 102 -40 194 -55 120 -20 764 -20 870 -1 186 34 320 120 454 289 l39 49 73 -80 c80 -87 173 -161 234 -188 164 -70 254 -88 405 -81 147 8 209 22 325 76 54 25 153 94 209 145 44 41 141 171 165 221 10 22 22 48 28 58 5 10 19 49 31 85 l22 67 0 1096 c0 1083 0 1097 -20 1119 -35 39 -95 54 -144 36z m-107 -1476 l26 -10 0 -327 c0 -360 -6 -404 -67 -530 -36 -74 -158 -199 -233 -237 -105 -53 -157 -66 -265 -66 -111 0 -158 11 -265 63 -68 34 -194 148 -223 202 -66 126 -87 200 -87 316 0 260 152 471 410 570 25 10 122 15 350 19 173 3 318 7 322 8 4 1 18 -2 32 -8z m-2297 -15 c19 -8 41 -15 49 -15 16 0 127 -65 162 -94 75 -63 133 -142 172 -233 41 -96 91 -88 -538 -91 l-552 -2 0 22 c0 13 7 36 15 52 8 15 15 32 15 36 0 21 77 135 119 176 74 74 131 107 271 157 36 13 251 7 287 -8z"/> <path d="M6140 6029 c-143 -40 -202 -69 -314 -153 -213 -161 -336 -408 -336 -676 0 -244 100 -467 285 -638 64 -58 174 -132 199 -132 6 0 16 -4 21 -9 13 -11 100 -41 155 -53 25 -5 146 -13 270 -17 207 -6 229 -9 269 -30 67 -35 108 -78 141 -148 57 -120 32 -253 -65 -348 -88 -87 -76 -85 -645 -85 -465 0 -497 -1 -523 -19 -89 -58 -85 -176 8 -228 40 -23 41 -23 500 -23 507 1 580 7 695 64 115 56 234 184 275 296 9 25 23 83 31 130 13 75 13 96 0 170 -26 152 -71 238 -175 331 -69 63 -136 102 -226 130 -51 16 -92 19 -265 19 -236 0 -277 9 -425 87 -36 20 -157 140 -176 176 -74 139 -89 194 -89 328 0 108 4 127 48 234 45 109 151 226 253 278 108 56 155 68 279 68 139 -1 173 -11 305 -90 42 -25 127 -132 148 -189 116 -303 319 -441 647 -442 93 0 120 -4 142 -18 34 -22 68 -65 68 -86 0 -20 53 -133 98 -208 71 -120 226 -250 372 -312 148 -63 167 -66 603 -66 389 0 400 1 425 21 64 50 79 115 41 176 -38 61 -36 61 -474 66 -427 5 -412 3 -530 57 -55 26 -144 100 -188 158 -48 63 -111 188 -102 203 4 5 249 9 628 9 l623 0 44 23 c82 42 98 121 61 302 -19 94 -24 107 -74 215 -75 159 -226 303 -410 388 -37 18 -75 32 -85 32 -9 0 -35 7 -57 15 -59 21 -301 20 -369 -1 -272 -88 -440 -222 -547 -435 -17 -35 -41 -82 -52 -104 -30 -61 -75 -103 -144 -135 -53 -25 -75 -30 -141 -30 -49 0 -87 6 -106 15 -15 8 -33 15 -38 15 -14 0 -88 57 -116 89 -25 28 -62 102 -62 123 0 22 -92 173 -130 215 -40 43 -130 119 -175 149 -158 102 -421 143 -595 93z m2483 -269 c72 -25 87 -34 159 -88 52 -38 122 -119 156 -180 24 -44 54 -133 48 -148 -5 -12 -80 -14 -553 -12 l-548 3 1 25 c5 71 77 197 162 278 64 62 202 133 277 144 87 12 235 1 298 -22z"/> <path d="M12275 6025 c-69 -15 -106 -29 -190 -70 -87 -43 -219 -179 -267 -276 -78 -156 -72 -109 -76 -664 -2 -275 -1 -519 3 -543 5 -35 14 -48 47 -72 49 -35 88 -38 134 -9 67 41 64 16 64 529 0 489 3 531 47 620 57 116 144 187 272 224 84 24 178 17 266 -21 52 -22 112 -71 152 -125 69 -95 83 -160 75 -354 -5 -138 7 -223 48 -339 81 -227 276 -420 510 -504 70 -25 242 -52 290 -46 163 24 240 43 320 80 168 78 325 235 397 395 11 25 27 62 36 83 9 21 17 48 17 60 0 12 7 44 15 71 20 64 20 228 0 292 -8 27 -15 59 -15 70 0 12 -14 55 -32 95 -158 366 -523 570 -903 505 -174 -30 -327 -113 -451 -243 -50 -52 -84 -68 -84 -38 0 26 -151 170 -215 206 -146 82 -304 107 -460 74z m1481 -264 c65 -18 88 -27 134 -53 8 -4 22 -11 30 -15 32 -14 123 -98 158 -147 38 -51 55 -83 88 -165 27 -64 26 -274 -1 -351 -21 -61 -87 -168 -131 -215 -40 -42 -140 -115 -158 -115 -8 0 -17 -4 -20 -9 -3 -5 -37 -18 -75 -30 -162 -49 -341 -18 -481 83 -103 75 -168 161 -214 281 -27 72 -29 280 -3 350 76 207 211 333 412 385 91 24 173 24 261 1z"/> <path d="M15330 6024 c-88 -17 -143 -36 -218 -76 -35 -18 -75 -39 -90 -47 -37 -20 -171 -156 -210 -213 -60 -88 -99 -178 -124 -288 -7 -28 -13 -336 -17 -800 -6 -698 -8 -759 -25 -805 -20 -54 -43 -110 -57 -137 -39 -77 -91 -173 -98 -182 -4 -6 -23 -47 -41 -91 -32 -75 -34 -87 -33 -195 0 -110 2 -118 33 -175 76 -142 187 -207 348 -207 101 0 151 16 229 74 118 87 180 233 154 370 -14 76 -70 213 -121 298 -9 14 -53 110 -85 185 -35 82 -45 171 -45 404 0 209 2 231 18 240 9 5 168 11 352 14 335 5 335 5 405 32 39 15 80 29 92 32 12 3 28 11 34 19 6 8 16 14 21 14 16 0 114 69 168 117 115 103 192 233 244 414 24 82 22 292 -3 391 -107 418 -524 693 -931 612z m260 -263 c161 -41 259 -111 353 -253 20 -31 37 -61 37 -66 0 -5 6 -22 14 -38 26 -55 40 -194 27 -270 -12 -65 -32 -130 -52 -164 -5 -8 -16 -31 -26 -50 -31 -64 -151 -174 -228 -210 -130 -61 -190 -70 -477 -70 -143 0 -268 4 -282 10 l-26 10 0 329 c0 275 3 337 16 382 63 206 196 334 404 390 85 23 148 23 240 0z m-747 -2343 c91 -188 100 -223 73 -276 -64 -124 -246 -86 -246 52 0 46 13 84 56 171 51 102 64 125 73 125 5 0 25 -33 44 -72z"/> </g> </svg>
